<svg width="40" height="40" viewBox="0 0 40 40" fill="none" xmlns="http://www.w3.org/2000/svg">
<g clip-path="url(#clip0_105_30)">
<path d="M20 40.0001C31.0458 40.0001 40.0001 31.0458 40.0001 20C40.0001 8.95432 31.0458 0 20 0C8.95432 0 0 8.95432 0 20C0 31.0458 8.95432 40.0001 20 40.0001Z" fill="#67B8CB"/>
<path d="M31.1054 30.0086C31.1054 30.6143 30.6143 31.1057 30.0079 31.1057H9.99277C9.38702 31.1057 8.89598 30.6143 8.89598 30.0086V9.9931C8.89598 9.38711 9.38702 8.89598 9.99277 8.89598H30.0083C30.6146 8.89598 31.1057 9.38702 31.1057 9.9931V30.0086H31.1054Z" fill="#FFF4E4"/>
<path d="M30.044 26.901L9.94381 26.8862L9.97352 12.9272L30.0739 12.9421L30.044 26.901Z" fill="#DBF0F5"/>
<path d="M29.82 24.4049L27.1025 21.683C27.1025 21.683 26.3241 20.6787 25.5999 20.7188C24.9484 20.7551 24.1873 21.5706 24.0417 21.7322L23.1306 20.8192C23.1306 20.8192 22.2189 19.6413 21.3703 19.6893C20.5214 19.736 19.5083 20.9175 19.5083 20.9175L19.2289 21.1951L17.514 19.4777C17.514 19.4777 16.3926 18.0294 15.3508 18.0881C14.3082 18.1462 13.0618 19.598 13.0618 19.598L10.1715 22.4841L10.1709 26.6783L29.8169 26.6919L29.82 24.4049Z" fill="#6CC077"/>
<path d="M21.2383 16.4592C21.2408 16.4371 21.2563 16.4172 21.2557 16.3938C21.2557 16.036 20.8694 15.7461 20.3929 15.7454C20.33 15.7454 20.2751 15.7628 20.2151 15.7719C20.0726 15.5818 19.8118 15.4488 19.4995 15.4482C19.0955 15.4482 18.7747 15.6671 18.6989 15.9541C18.3067 16.0312 18.0111 16.2874 18.0105 16.6056C18.0105 16.9072 18.2732 17.1557 18.6335 17.2483C18.7564 17.5233 19.0905 17.7251 19.4982 17.7251C19.867 17.7257 20.181 17.5606 20.3279 17.3253C20.4236 17.3575 20.5259 17.3765 20.637 17.3765C21.0602 17.377 21.4038 17.1197 21.4044 16.8017C21.4035 16.6704 21.3353 16.5558 21.2383 16.4592Z" fill="#67B8CB"/>
<path d="M25.2734 17.2753C25.2703 17.2591 25.2598 17.2456 25.2598 17.2292C25.2604 16.975 25.5361 16.7697 25.8741 16.7697C25.9186 16.7697 25.958 16.782 25.9997 16.7889C26.1014 16.6538 26.2871 16.5587 26.5078 16.5587C26.7952 16.5593 27.0235 16.7153 27.0779 16.919C27.356 16.9752 27.5658 17.1571 27.5652 17.383C27.5652 17.5971 27.3776 17.7733 27.1224 17.8386C27.0356 18.0341 26.7968 18.1766 26.5076 18.1766C26.2448 18.1772 26.0228 18.0587 25.9179 17.8923C25.8507 17.9144 25.7767 17.928 25.6991 17.928C25.3975 17.9274 25.1537 17.7449 25.1543 17.519C25.153 17.4256 25.2026 17.344 25.2734 17.2753Z" fill="#67B8CB"/>
</g>
<defs>
<clipPath id="clip0_105_30">
<rect width="40" height="40" fill="white"/>
</clipPath>
</defs>
</svg>
